<svg width="34" height="33" viewBox="0 0 34 33" fill="none" xmlns="http://www.w3.org/2000/svg">
<path d="M9.34009 21.2394L9.42009 23.3594L11.5401 23.4294L19.4101 15.5494L17.2201 13.3594L9.34009 21.2394Z" fill="#D0D0D0"/>
<path d="M28.54 0H4.54004C3.33504 0.00264836 2.18035 0.483178 1.32922 1.33618C0.478095 2.18919 -2.91028e-06 3.34498 0 4.54999V27.55C-2.91028e-06 28.755 0.478095 29.9108 1.32922 30.7638C2.18035 31.6168 3.33504 32.0973 4.54004 32.1H28.54C29.7468 32.1 30.904 31.6206 31.7573 30.7673C32.6106 29.914 33.0901 28.7567 33.0901 27.55V4.54999C33.0901 3.34325 32.6106 2.18593 31.7573 1.33264C30.904 0.479351 29.7468 0 28.54 0V0ZM25.17 13L22.5601 15.61L23.75 16.8C23.8525 16.9014 23.9338 17.0221 23.9894 17.1551C24.0449 17.2881 24.0736 17.4309 24.0736 17.575C24.0736 17.7192 24.0449 17.8618 23.9894 17.9949C23.9338 18.1279 23.8525 18.2486 23.75 18.35C23.6493 18.4552 23.5282 18.5387 23.394 18.5955C23.2599 18.6522 23.1157 18.681 22.9701 18.68C22.8261 18.6802 22.6834 18.651 22.551 18.5943C22.4186 18.5376 22.2993 18.4544 22.2001 18.35L21 17.15L12.78 25.37C12.6774 25.472 12.5557 25.5528 12.4219 25.6077C12.288 25.6626 12.1447 25.6906 12 25.69V25.69L8.39001 25.57C8.11106 25.5602 7.846 25.4457 7.64771 25.2492C7.44941 25.0528 7.33247 24.7889 7.32007 24.51L7.19006 20.88C7.18694 20.729 7.21353 20.5789 7.26843 20.4382C7.32334 20.2975 7.40544 20.169 7.51001 20.06L15.73 11.85L14.53 10.65C14.4272 10.5477 14.3457 10.4262 14.29 10.2924C14.2344 10.1585 14.2057 10.015 14.2057 9.87C14.2057 9.72502 14.2344 9.58149 14.29 9.44763C14.3457 9.31377 14.4272 9.19219 14.53 9.08997C14.6323 8.98717 14.7538 8.90558 14.8877 8.84991C15.0216 8.79425 15.1651 8.76562 15.3101 8.76562C15.455 8.76562 15.5986 8.79425 15.7324 8.84991C15.8663 8.90558 15.9879 8.98717 16.0901 9.08997L17.29 10.29L17.65 9.92999L19.8501 7.71997C20.1971 7.3741 20.608 7.099 21.0601 6.90997C21.5162 6.71907 22.0055 6.62052 22.5 6.62C22.9905 6.61815 23.4765 6.71327 23.9301 6.89996C24.3875 7.08895 24.8023 7.36779 25.15 7.71997C25.5006 8.06619 25.7785 8.47896 25.9674 8.93402C26.1563 9.38908 26.2523 9.87729 26.25 10.37C26.2318 11.345 25.8335 12.2744 25.14 12.96L25.17 13Z" fill="#D0D0D0"/>
</svg>
