<svg width="34" height="33" viewBox="0 0 34 33" fill="none" xmlns="http://www.w3.org/2000/svg">
<path d="M29.3321 2.25071L5.30149 1.7552C3.64498 1.72105 2.27443 3.03622 2.24028 4.69272L1.76613 27.6878C1.73197 29.3443 3.04714 30.7149 4.70365 30.749L28.7343 31.2445C30.3908 31.2787 31.7613 29.9635 31.7955 28.307L32.2696 5.31191C32.3038 3.65541 30.9886 2.28486 29.3321 2.25071Z" stroke="black" stroke-width="3" stroke-linejoin="round"/>
<path d="M24.9614 12.7908C25.4699 12.3029 25.7637 11.6329 25.7782 10.9283C25.7927 10.2237 25.5268 9.54229 25.0388 9.0338C24.7976 8.78242 24.5091 8.58108 24.1899 8.4415C23.8707 8.30192 23.5271 8.22689 23.1787 8.22048C22.8304 8.21407 22.4843 8.27652 22.1601 8.40427C21.836 8.53201 21.5403 8.72244 21.29 8.96477L18.4225 11.7163L22.094 15.5424L24.9614 12.7908Z" fill="black" stroke="black" stroke-width="3" stroke-linecap="round" stroke-linejoin="round"/>
<path d="M18.9911 11.155L8.64975 21.0785L8.70802 24.7054L12.3212 24.9046L22.9849 14.6717" stroke="black" stroke-width="3" stroke-linecap="round" stroke-linejoin="round"/>
<path d="M15.8914 10.252L23.4378 18.1161" stroke="black" stroke-width="3" stroke-linecap="round" stroke-linejoin="round"/>
</svg>
