<svg width="34" height="33" viewBox="0 0 34 33" fill="none" xmlns="http://www.w3.org/2000/svg">
<path d="M29.0357 2H5C3.34315 2 2 3.34315 2 5V28C2 29.6569 3.34315 31 5 31H29.0357C30.6926 31 32.0357 29.6569 32.0357 28V5C32.0357 3.34315 30.6926 2 29.0357 2Z" stroke="#D0D0D0" stroke-width="3" stroke-linejoin="round"/>
<path d="M10.8036 14.4277C12.8056 14.4277 14.4286 12.8048 14.4286 10.8027C14.4286 8.8007 12.8056 7.17773 10.8036 7.17773C8.80156 7.17773 7.17859 8.8007 7.17859 10.8027C7.17859 12.8048 8.80156 14.4277 10.8036 14.4277Z" fill="#D0D0D0"/>
<path d="M7.33572 23.9662C8.67528 22.6398 11.3544 20.085 12.1775 19.2499C12.264 19.178 12.3725 19.1388 12.4842 19.1388C12.596 19.1388 12.7043 19.178 12.7908 19.2499L16.761 22.4269C16.8594 22.497 16.9801 22.5275 17.0995 22.5123C17.2188 22.4972 17.3282 22.4376 17.4066 22.345L21.1833 17.7105C21.2272 17.6557 21.2825 17.6116 21.3453 17.5812C21.4081 17.5509 21.4769 17.5352 21.5464 17.5352C21.616 17.5352 21.6846 17.5509 21.7474 17.5812C21.8102 17.6116 21.8656 17.6557 21.9095 17.7105L26.7513 24.0317C26.8071 24.0992 26.8426 24.1815 26.8536 24.2689C26.8645 24.3563 26.8504 24.445 26.813 24.5245C26.7755 24.6039 26.7163 24.6708 26.6424 24.717C26.5685 24.7632 26.4831 24.7868 26.3963 24.7851H7.54554C7.4613 24.7662 7.38385 24.7241 7.32173 24.6633C7.25961 24.6026 7.21538 24.5255 7.19367 24.4408C7.17196 24.3561 7.1737 24.267 7.19879 24.1832C7.22388 24.0995 7.27122 24.0244 7.33572 23.9662Z" fill="#D0D0D0"/>
</svg>
