<svg width="29" height="33" viewBox="0 0 29 33" fill="none" xmlns="http://www.w3.org/2000/svg">
<g filter="url(#filter0_d_487_290)">
<path d="M22.815 23.8501L15.3706 18.2853C14.8562 17.9015 14.1438 17.9015 13.6294 18.2853L6.185 23.8501C5.69973 24.2143 5 23.8733 5 23.2735V1.72483C5 1.32493 5.33078 1 5.7379 1H23.2621C23.6692 1 24 1.32493 24 1.72483V23.2735C24 23.8733 23.3003 24.2143 22.815 23.8501Z" fill="white" fill-opacity="0.35" shape-rendering="crispEdges"/>
<path d="M22.815 23.8501L15.3706 18.2853C14.8562 17.9015 14.1438 17.9015 13.6294 18.2853L6.185 23.8501C5.69973 24.2143 5 23.8733 5 23.2735V1.72483C5 1.32493 5.33078 1 5.7379 1H23.2621C23.6692 1 24 1.32493 24 1.72483V23.2735C24 23.8733 23.3003 24.2143 22.815 23.8501Z" stroke="white" stroke-width="2" shape-rendering="crispEdges"/>
</g>
<defs>
<filter id="filter0_d_487_290" x="0" y="0" width="29" height="32.998" filterUnits="userSpaceOnUse" color-interpolation-filters="sRGB">
<feFlood flood-opacity="0" result="BackgroundImageFix"/>
<feColorMatrix in="SourceAlpha" type="matrix" values="0 0 0 0 0 0 0 0 0 0 0 0 0 0 0 0 0 0 127 0" result="hardAlpha"/>
<feOffset dy="4"/>
<feGaussianBlur stdDeviation="2"/>
<feComposite in2="hardAlpha" operator="out"/>
<feColorMatrix type="matrix" values="0 0 0 0 0 0 0 0 0 0 0 0 0 0 0 0 0 0 0.25 0"/>
<feBlend mode="normal" in2="BackgroundImageFix" result="effect1_dropShadow_487_290"/>
<feBlend mode="normal" in="SourceGraphic" in2="effect1_dropShadow_487_290" result="shape"/>
</filter>
</defs>
</svg>
